Coordinates
version=1
nRows=14
nColumns=63
inDegrees=yes

Units are S.I. units (second, meters, Newtons, ...)
If the header above contains a line with 'inDegrees', this indicates whether rotational values are in degrees (yes) or radians (no).

endheader
time	pelvis_tilt	pelvis_list	pelvis_rotation	pelvis_tx	pelvis_ty	pelvis_tz	hip_flexion_r	hip_adduction_r	hip_rotation_r	knee_angle_r	knee_angle_r_beta	ankle_angle_r	subtalar_angle_r	mtp_angle_r	hip_flexion_l	hip_adduction_l	hip_rotation_l	knee_angle_l	knee_angle_l_beta	ankle_angle_l	subtalar_angle_l	mtp_angle_l	L5_S1_Flex_Ext	L5_S1_Lat_Bending	L5_S1_axial_rotation	L4_L5_Flex_Ext	L4_L5_Lat_Bending	L4_L5_axial_rotation	L3_L4_Flex_Ext	L3_L4_Lat_Bending	L3_L4_axial_rotation	L2_L3_Flex_Ext	L2_L3_Lat_Bending	L2_L3_axial_rotation	L1_L2_Flex_Ext	L1_L2_Lat_Bending	L1_L2_axial_rotation	L1_T12_Flex_Ext	L1_T12_Lat_Bending	L1_T12_axial_rotation	Abs_r3	Abs_r2	Abs_r1	Abs_t1	Abs_t2	neck_flexion	neck_bending	neck_rotation	arm_flex_r	arm_add_r	arm_rot_r	elbow_flex_r	pro_sup_r	wrist_flex_r	wrist_dev_r	arm_flex_l	arm_add_l	arm_rot_l	elbow_flex_l	pro_sup_l	wrist_flex_l	wrist_dev_l
5.018182	-3.611571	-9.100652	91.212563	0.210377	0.829646	0.614848	4.272523	-4.030168	-12.605861	7.521169	0.131269	21.102247	13.197144	0.000000	4.970610	2.278248	10.481834	3.384325	0.059068	11.216281	-7.693113	0.000000	0.730762	-0.695970	-1.282107	1.357098	-0.925640	-1.362239	1.200569	-1.692181	-1.362239	0.835188	-1.692181	-1.121844	0.678586	-1.419222	-1.041712	0.417557	-1.078057	-0.961581	5.219759	-7.872950	-7.130696	0.000000	0.000000	28.508731	5.030769	12.707086	8.466033	-2.163681	148.582040	2.035431	1.695960	-1.503127	-5.525383	11.742319	-11.955909	138.841445	9.403482	3.581302	-5.587908	-7.744336
5.036364	-3.687879	-8.979451	90.867033	0.210795	0.829829	0.614414	4.183356	-4.096850	-12.340287	7.558047	0.131913	21.118331	13.231501	0.000000	4.696659	2.327552	10.337392	3.217894	0.056163	11.035472	-7.957101	0.000000	0.720047	-0.700119	-1.236560	1.337199	-0.931158	-1.313845	1.182965	-1.702269	-1.313845	0.822942	-1.702269	-1.081990	0.668636	-1.427682	-1.004705	0.411435	-1.084484	-0.927420	5.143223	-7.919885	-6.877374	0.000000	0.000000	28.507482	5.076613	12.771245	8.466593	-2.139275	148.880224	2.066375	1.718841	-1.522799	-5.477093	11.699759	-12.031206	138.010246	9.559144	3.624140	-5.567251	-7.765513
5.054545	-3.765963	-8.868939	90.552191	0.211157	0.830001	0.614143	4.106953	-4.167023	-12.088769	7.583897	0.132364	21.139272	13.241423	0.000000	4.464570	2.383494	10.155456	3.089917	0.053929	10.932234	-8.079478	0.000000	0.707709	-0.704291	-1.200021	1.314286	-0.936707	-1.275022	1.162695	-1.712412	-1.275022	0.808840	-1.712412	-1.050018	0.657178	-1.436190	-0.975017	0.404385	-1.090946	-0.900016	5.055093	-7.967077	-6.674156	0.000000	0.000000	28.506059	5.174678	12.862450	8.497680	-2.108525	149.536230	2.062927	1.769970	-1.635058	-5.407498	11.666614	-12.114900	137.066118	9.718015	3.657968	-5.536754	-7.804689
5.072727	-3.846318	-8.767768	90.288067	0.211449	0.830158	0.614029	4.032611	-4.239524	-11.869884	7.588124	0.132438	21.156882	13.229288	0.000000	4.271056	2.449422	10.028027	2.993916	0.052254	10.860802	-8.184382	0.000000	0.694383	-0.709305	-1.171771	1.289538	-0.943375	-1.245007	1.140801	-1.724604	-1.245007	0.793610	-1.724604	-1.025300	0.644804	-1.446414	-0.952064	0.396770	-1.098713	-0.878829	4.959906	-8.023798	-6.517041	0.000000	0.000000	28.504488	5.276954	12.909714	8.547119	-2.071380	150.440069	2.031235	1.842528	-1.818995	-5.323404	11.641465	-12.201544	136.047743	9.866540	3.673644	-5.491805	-7.870947
5.090909	-3.929592	-8.677016	90.093006	0.211674	0.830300	0.614084	3.950741	-4.311400	-11.689220	7.553801	0.131839	21.154791	13.180898	0.000000	4.144170	2.518959	9.745610	2.979786	0.052007	10.899665	-7.964265	0.000000	0.680577	-0.716082	-1.150326	1.263900	-0.952389	-1.222221	1.118121	-1.741082	-1.222221	0.777832	-1.741082	-1.006535	0.631984	-1.460235	-0.934640	0.388882	-1.109211	-0.862744	4.861296	-8.100465	-6.397768	0.000000	0.000000	28.502813	5.345173	12.858712	8.606326	-2.025452	151.481349	1.972859	1.924887	-2.025939	-5.225856	11.618483	-12.291319	134.930645	9.980765	3.715327	-5.420252	-7.966146
5.109091	-4.007079	-8.593938	89.996568	0.211786	0.830425	0.614259	3.846118	-4.377574	-11.625431	7.473023	0.130429	21.123113	13.166648	0.000000	4.046915	2.594976	9.650432	2.977798	0.051972	10.901304	-7.893576	0.000000	0.666553	-0.724297	-1.133809	1.237855	-0.963315	-1.204672	1.095079	-1.761056	-1.204672	0.761803	-1.761056	-0.992083	0.618961	-1.476987	-0.921220	0.380868	-1.121936	-0.850357	4.761118	-8.193394	-6.305907	0.000000	0.000000	28.501005	5.326674	12.627231	8.655220	-1.976993	152.626898	1.882451	2.029676	-2.285898	-5.129135	11.605976	-12.350745	134.137305	9.998295	3.670616	-5.305318	-8.095632
5.127273	-4.080301	-8.527740	90.007776	0.211776	0.830527	0.614552	3.719473	-4.435906	-11.665512	7.330592	0.127943	21.050535	13.160772	0.000000	4.008765	2.674915	9.608726	3.027008	0.052831	10.919970	-7.777317	0.000000	0.653469	-0.734120	-1.123606	1.213558	-0.976380	-1.193831	1.073585	-1.784940	-1.193831	0.746850	-1.784940	-0.983155	0.606812	-1.497018	-0.912930	0.373392	-1.137152	-0.842705	4.667666	-8.304515	-6.249160	0.000000	0.000000	28.499175	5.210510	12.219818	8.695139	-1.925180	153.964580	1.754488	2.126590	-2.586070	-5.018785	11.599176	-12.386884	133.563120	9.931887	3.613618	-5.166142	-8.256636
5.145455	-4.145637	-8.482534	90.132531	0.211631	0.830595	0.614948	3.571976	-4.481763	-11.792025	7.123097	0.124321	20.931972	13.127582	0.000000	4.026184	2.757653	9.679590	3.109686	0.054274	10.932753	-7.696969	0.000000	0.641506	-0.744973	-1.120880	1.191341	-0.990814	-1.190935	1.053931	-1.811327	-1.190935	0.733178	-1.811327	-0.980770	0.595703	-1.519148	-0.910715	0.366557	-1.153963	-0.840660	4.582216	-8.427280	-6.233997	0.000000	0.000000	28.497399	5.024878	11.666950	8.722982	-1.873974	155.375337	1.594478	2.229431	-2.906617	-4.903518	11.598382	-12.391673	133.335675	9.763696	3.528179	-5.005688	-8.443615
5.163636	-4.202638	-8.459119	90.341342	0.211376	0.830619	0.615417	3.406159	-4.512435	-11.944959	6.847784	0.119516	20.765625	13.032220	0.000000	4.084721	2.841414	9.901619	3.201708	0.055880	10.920336	-7.741288	0.000000	0.630810	-0.756039	-1.122241	1.171478	-1.005532	-1.192381	1.036358	-1.838234	-1.192381	0.720953	-1.838234	-0.981961	0.585770	-1.541715	-0.911821	0.360445	-1.171105	-0.841681	4.505815	-8.552468	-6.241568	0.000000	0.000000	28.495824	4.789618	10.998104	8.734308	-1.829714	156.790688	1.409005	2.337442	-3.254714	-4.803043	11.605744	-12.361707	133.494241	9.496625	3.419619	-4.826542	-8.640076
5.181818	-4.246872	-8.461432	90.610971	0.211028	0.830588	0.615945	3.233143	-4.522994	-12.100240	6.511097	0.113640	20.556474	12.881111	0.000000	4.186993	2.920012	10.219853	3.306266	0.057705	10.914284	-7.846834	0.000000	0.622118	-0.765716	-1.127901	1.155336	-1.018402	-1.198395	1.022078	-1.861762	-1.198395	0.711019	-1.861762	-0.986914	0.577699	-1.561448	-0.916420	0.355478	-1.186094	-0.845926	4.443728	-8.661931	-6.273049	0.000000	0.000000	28.494548	4.554744	10.285683	8.734300	-1.798538	158.253240	1.206303	2.419302	-3.648196	-4.722742	11.616986	-12.292263	134.065070	9.134927	3.299295	-4.647397	-8.840689
5.200000	-4.278609	-8.486279	90.923201	0.210621	0.830509	0.616535	3.057302	-4.514391	-12.241497	6.122508	0.106858	20.309219	12.677830	0.000000	4.346285	2.984948	10.433791	3.463781	0.060454	10.987718	-7.751351	0.000000	0.615056	-0.774120	-1.135019	1.142220	-1.029580	-1.205958	1.010475	-1.882196	-1.205958	0.702947	-1.882196	-0.993142	0.571141	-1.578586	-0.922203	0.351443	-1.199112	-0.851264	4.393282	-8.757002	-6.312636	0.000000	0.000000	28.493732	4.259928	9.422834	8.719636	-1.781513	159.531632	1.009950	2.506626	-4.044225	-4.683117	11.645513	-12.210818	134.755387	8.765203	3.169438	-4.451013	-9.033918
5.218182	-4.305082	-8.524296	91.267970	0.210136	0.830401	0.617147	2.872120	-4.496246	-12.328301	5.688867	0.099289	20.039502	12.403576	0.000000	4.536760	3.044403	10.556550	3.653309	0.063762	11.117533	-7.475548	0.000000	0.610476	-0.778494	-1.157112	1.133716	-1.035397	-1.229432	1.002952	-1.892830	-1.229432	0.697714	-1.892830	-1.012473	0.566888	-1.587505	-0.940154	0.348826	-1.205887	-0.867834	4.360573	-8.806481	-6.435512	0.000000	0.000000	28.493685	4.316165	9.018360	8.708154	-1.790978	160.496967	0.847233	2.607333	-4.403618	-4.695898	11.643260	-12.088429	135.819416	8.302594	3.020706	-4.246814	-9.217304
5.236364	-4.324013	-8.570138	91.619309	0.209624	0.830281	0.617765	2.682635	-4.465639	-12.319963	5.220384	0.091113	19.749945	12.035740	0.000000	4.744512	3.094439	10.603171	3.862145	0.067407	11.272323	-7.086605	0.000000	0.608062	-0.780474	-1.181557	1.129231	-1.038031	-1.255405	0.998984	-1.897645	-1.255405	0.694954	-1.897645	-1.033863	0.564646	-1.591543	-0.960015	0.347446	-1.208955	-0.886168	4.343323	-8.828881	-6.571468	0.000000	0.000000	28.494533	4.382093	8.575557	8.689331	-1.823868	161.223797	0.737873	2.703963	-4.777477	-4.728561	11.639950	-11.956579	136.925580	7.851009	2.851194	-4.017044	-9.354181
5.254545	-4.338276	-8.618929	91.957314	0.209109	0.830162	0.618419	2.500816	-4.429030	-12.222079	4.739548	0.082721	19.461268	11.609041	0.000000	4.966637	3.137562	10.565471	4.091112	0.071403	11.442385	-6.603606	0.000000	0.606581	-0.780649	-1.202805	1.126482	-1.038263	-1.277980	0.996552	-1.898069	-1.277980	0.693262	-1.898069	-1.052454	0.563271	-1.591899	-0.977279	0.346600	-1.209225	-0.902104	4.332748	-8.830855	-6.689639	0.000000	0.000000	28.495805	4.306622	7.897940	8.666259	-1.880601	161.641547	0.690009	2.804513	-5.144058	-4.778345	11.651567	-11.832079	137.871505	7.466426	2.695634	-3.785512	-9.436843
